<svg width="149" height="53" viewBox="0 0 149 53" fill="none" xmlns="http://www.w3.org/2000/svg">
<g clip-path="url(#clip0_187_63)">
<path d="M0 36.8607C0.850417 32.4124 2.46091 28.1136 3.72875 23.768C4.18356 22.2105 4.58229 20.6249 5.03709 19.1016C6.12114 15.457 8.66616 4.45142 10.747 2.11511C12.4572 0.196216 15.0863 -0.339578 17.5286 0.320819C20.6841 1.17124 22.3974 5.22396 23.9238 7.85932C27.1043 13.345 30.0699 18.9739 33.1507 24.5157L33.5432 24.1232C37.5461 17.7061 40.8574 9.18323 45.2279 3.14931C48.7541 -1.71956 55.1276 -0.781919 57.196 4.85015C58.7006 8.9496 59.4451 13.7032 60.903 17.865L61.2487 18.3166H83.6929C85.5059 18.0363 87.6366 17.5721 88.5618 15.8184C88.8577 15.2608 88.8702 14.6253 89.2938 14.1611H100.044C100.667 14.1611 100.324 15.7903 100.253 16.161C99.6577 19.1608 97.5083 22.2043 94.8324 23.6808C94.415 23.9113 91.0445 25.0982 91.1878 25.31C93.4493 26.8426 95.4586 29.0076 97.365 30.9826C98.8727 32.5432 100.957 34.5961 102.24 36.2626C102.396 36.462 102.623 36.515 102.536 36.8607H87.9045L79.743 27.3037H63.7159L66.2702 36.4059L66.0055 36.8576H55.4547L49.3803 14.5599L46.0347 21.0673C43.9912 25.039 41.1752 31.1321 38.6769 34.6148C36.2782 37.9572 31.5558 38.4183 28.3722 35.8701C23.9238 29.3721 20.6873 21.9862 16.9772 15.0178L16.5317 14.7592L10.6567 36.8576H0V36.8607Z" fill="white"/>
<path d="M142.45 0.626125C145.755 1.01863 147.745 3.7194 146.568 6.93417C145.73 9.22375 140.914 12.4977 138.858 14.1549C133.192 18.7216 127.395 23.1357 121.647 27.6027L148.521 27.503L148.328 28.2039L141.948 36.758L107.411 36.8576C102.265 36.3966 100.991 31.481 104.617 28.0949C112.037 22.0018 119.794 16.3261 127.367 10.4386C127.532 10.3109 127.728 10.4449 127.619 9.98383H63.2145L60.2085 1.03732L60.4297 0.626125H142.453H142.45Z" fill="white"/>
<path d="M104.492 39.4058H111.819V41.8947H109.405V52.6667H106.844V41.8947H104.492V39.4058Z" fill="white"/>
<path d="M113.56 39.4058H120.796V41.876H116.065V44.2747H120.796V46.6982H116.065V50.1871H120.796V52.6667H113.56V39.4089V39.4058Z" fill="white"/>
<path d="M135.338 41.7359L133.572 43.418C132.372 42.1502 131.02 41.5147 129.519 41.5147C128.251 41.5147 127.186 41.9477 126.317 42.8137C125.447 43.6797 125.014 44.7481 125.014 46.016C125.014 46.9007 125.208 47.6857 125.591 48.371C125.974 49.0563 126.519 49.5952 127.22 49.9846C127.921 50.374 128.703 50.5702 129.562 50.5702C130.294 50.5702 130.964 50.4332 131.572 50.159C132.179 49.8849 132.846 49.3865 133.572 48.6669L135.282 50.4519C134.304 51.4082 133.375 52.0717 132.506 52.4393C131.634 52.81 130.64 52.9938 129.522 52.9938C127.46 52.9938 125.775 52.3396 124.46 51.0344C123.148 49.726 122.491 48.0532 122.491 46.0098C122.491 44.689 122.79 43.5146 123.388 42.4866C123.986 41.4586 124.843 40.6331 125.958 40.007C127.073 39.3809 128.273 39.0694 129.559 39.0694C130.653 39.0694 131.706 39.2999 132.718 39.7609C133.73 40.2219 134.603 40.8792 135.338 41.7327V41.7359Z" fill="white"/>
<path d="M137.537 39.4058H140.098V44.4086H144.524V39.4058H147.075V52.6636H144.524V46.8508H140.098V52.6636H137.537V39.4058Z" fill="white"/>
</g>
<defs>
<clipPath id="clip0_187_63">
<rect width="148.521" height="53" fill="white"/>
</clipPath>
</defs>
</svg>
